<?xml version="1.0" encoding="iso-8859-1"?>
<!-- Generator: Adobe Illustrator 19.0.0, SVG Export Plug-In . SVG Version: 6.00 Build 0)  -->
<svg version="1.1" id="Capa_1" xmlns="http://www.w3.org/2000/svg" xmlns:xlink="http://www.w3.org/1999/xlink" x="0px" y="0px"
	 viewBox="0 0 512 512" style="enable-background:new 0 0 512 512;" xml:space="preserve">
<g>
	<path style="fill:#556080;" d="M249.677,222.678c-2.13,0-4.262-0.813-5.888-2.439c-3.252-3.252-3.252-8.523,0-11.775l29.437-29.437
		c3.251-3.25,8.523-3.25,11.774,0c3.252,3.252,3.252,8.523,0,11.775l-29.437,29.437
		C253.939,221.865,251.808,222.678,249.677,222.678z"/>
	<path style="fill:#556080;" d="M296.776,269.778c-2.131,0-4.262-0.813-5.888-2.438c-3.252-3.252-3.252-8.524,0-11.775
		l29.438-29.437c3.252-3.25,8.524-3.249,11.774,0c3.252,3.252,3.252,8.524,0,11.775l-29.437,29.438
		C301.038,268.965,298.907,269.778,296.776,269.778z"/>
</g>
<path style="fill:#56ACE1;" d="M508.724,73.054l-70.649-70.65c-3.206-3.206-8.569-3.206-11.774,0L261.452,167.253
	c-3.206,3.207-3.206,8.569,0,11.775l70.649,70.649c3.209,3.208,8.566,3.208,11.774,0L508.724,84.829
	C511.976,81.577,511.976,76.306,508.724,73.054z"/>
<polygon style="fill:#298ECC;" points="479.286,43.617 467.512,31.842 426.3,73.054 390.975,37.73 379.2,49.505 414.524,84.829 
	385.088,114.266 349.763,78.942 337.988,90.717 373.313,126.04 343.876,155.478 308.551,120.154 296.777,131.928 332.101,167.253 
	290.889,208.464 302.664,220.239 343.876,179.027 379.2,214.352 390.975,202.578 355.651,167.253 385.088,137.815 420.412,173.14 
	432.187,161.365 396.863,126.04 426.3,96.603 461.624,131.928 473.399,120.154 438.074,84.829 "/>
<g>
	<path style="fill:#556080;" d="M184.915,287.44c-2.13,0-4.262-0.813-5.888-2.438c-3.252-3.252-3.252-8.523,0-11.775l29.437-29.437
		c3.251-3.25,8.523-3.25,11.774,0c3.252,3.252,3.252,8.523,0,11.775l-29.436,29.437C189.177,286.628,187.046,287.44,184.915,287.44z
		"/>
	<path style="fill:#556080;" d="M232.015,334.54c-2.13,0-4.262-0.813-5.888-2.438c-3.252-3.252-3.252-8.523,0-11.775l29.437-29.437
		c3.251-3.25,8.523-3.25,11.774,0c3.252,3.252,3.252,8.523,0,11.775l-29.437,29.437C236.277,333.727,234.145,334.54,232.015,334.54z
		"/>
</g>
<path style="fill:#56ACE1;" d="M249.676,332.1l-70.649-70.649c-3.251-3.25-8.523-3.25-11.774,0L2.405,426.3
	c-3.206,3.207-3.206,8.569,0,11.775l70.649,70.649c3.209,3.208,8.566,3.208,11.774,0l164.848-164.848
	C252.883,340.669,252.883,335.308,249.676,332.1z"/>
<polygon style="fill:#298ECC;" points="220.239,302.664 208.465,290.889 167.253,332.101 131.929,296.777 120.154,308.551 
	155.478,343.876 126.041,373.313 90.716,337.988 78.942,349.763 114.266,385.088 84.829,414.525 49.504,379.201 37.729,390.976 
	73.054,426.301 31.842,467.513 43.617,479.287 84.828,438.075 120.154,473.399 131.928,461.624 96.603,426.3 126.041,396.863 
	161.366,432.187 173.141,420.413 137.815,385.088 167.253,355.651 202.578,390.975 214.352,379.2 179.027,343.876 "/>
<rect x="230.592" y="130.679" transform="matrix(-0.7071 0.7071 -0.7071 -0.7071 617.0001 255.5684)" style="fill:#778099;" width="49.956" height="249.78"/>
<path style="fill:#EEEFF2;" d="M249.676,143.703l-94.198-94.199c-3.206-3.206-8.569-3.206-11.774,0l-94.199,94.199
	c-3.252,3.252-3.252,8.523,0,11.775l94.199,94.199c3.206,3.206,8.569,3.206,11.774,0l94.198-94.199
	C252.929,152.226,252.929,146.955,249.676,143.703z"/>
<path style="fill:#DDDFE6;" d="M49.505,143.703c-3.252,3.252-3.252,8.523,0,11.775l94.199,94.199c3.206,3.206,8.569,3.206,11.774,0
	l26.111-26.111L75.615,117.592L49.505,143.703z"/>
<g>
	
		<rect x="123.6" y="56.987" transform="matrix(-0.7071 -0.7071 0.7071 -0.7071 131.9294 318.4895)" style="fill:#99A0B3;" width="16.652" height="149.868"/>
	
		<rect x="158.924" y="92.308" transform="matrix(-0.7071 -0.7071 0.7071 -0.7071 167.2561 403.7633)" style="fill:#99A0B3;" width="16.652" height="149.868"/>
</g>
<g>
	
		<rect x="72.281" y="160.498" transform="matrix(-0.7071 0.7071 -0.7071 -0.7071 281.6013 221.0051)" style="fill:#8890A6;" width="45.496" height="16.652"/>
	
		<rect x="122.018" y="181.409" transform="matrix(0.7071 0.7071 -0.7071 0.7071 182.5384 -32.3705)" style="fill:#8890A6;" width="16.652" height="45.497"/>
</g>
<path d="M320.326,375.752c-2.13,0-4.262-0.813-5.888-2.438c-3.252-3.252-3.252-8.523,0-11.775l47.1-47.1
	c3.251-3.25,8.523-3.25,11.774,0c3.252,3.252,3.252,8.523,0,11.775l-47.1,47.1C324.587,374.938,322.457,375.752,320.326,375.752z"/>
<path style="fill:#FFE88F;" d="M410.649,400.117l-23.549-70.65c-0.912-2.737-3.177-4.807-5.985-5.47
	c-2.806-0.663-5.76,0.174-7.8,2.216l-47.1,47.1c-2.04,2.041-2.879,4.993-2.216,7.801c0.663,2.808,2.733,5.074,5.47,5.986
	l70.649,23.55C406.506,412.779,412.775,406.494,410.649,400.117z"/>
<path style="fill:#FFCF1A;" d="M433.426,282.883c-0.564-2.742-2.469-5.018-5.068-6.055c-43.357-17.308-92.692-7.165-125.693,25.836
	c-33,33.001-43.143,82.339-25.837,125.694c2.176,5.45,9.459,6.961,13.62,2.801l140.71-140.71
	C433.137,288.468,433.99,285.625,433.426,282.883z"/>
<path style="fill:#FFBE35;" d="M297.62,417.321c-17.305-43.354-7.164-92.692,25.837-125.694c5.496-5.496,11.454-10.343,17.752-14.55
	c-14.156,5.755-27.3,14.341-38.546,25.585c-33,33.001-43.143,82.339-25.837,125.694c2.176,5.45,9.459,6.961,13.62,2.801
	l10.151-10.151C299.313,420.132,298.25,418.898,297.62,417.321z"/>
<g>
	<path style="fill:#48DB87;" d="M420.412,512c-4.537,0-8.326-3.789-8.326-8.326s3.789-8.326,8.326-8.326
		c20.016,0,38.834-7.794,52.987-21.949c14.153-14.153,21.948-32.971,21.948-52.986c0-4.598,3.728-8.326,8.326-8.326
		c4.598,0,8.326,3.727,8.326,8.326c0,24.463-9.526,47.463-26.825,64.762C467.876,502.473,444.876,512,420.412,512z"/>
	<path style="fill:#48DB87;" d="M420.412,478.696c-4.598,0-8.326-3.728-8.326-8.326s3.728-8.326,8.326-8.326
		c11.121,0,21.574-4.331,29.437-12.194c7.863-7.863,12.194-18.317,12.194-29.437c0-4.598,3.728-8.326,8.326-8.326
		s8.326,3.728,8.326,8.326c0,15.568-6.062,30.204-17.071,41.212C450.617,472.632,435.981,478.696,420.412,478.696z"/>
	<path style="fill:#48DB87;" d="M420.412,445.391c-4.598,0-8.326-3.728-8.326-8.326s3.728-8.326,8.326-8.326
		c2.224,0,4.315-0.866,5.888-2.44c1.573-1.573,2.439-3.663,2.439-5.887c0-4.598,3.728-8.326,8.326-8.326s8.326,3.728,8.326,8.326
		c0,6.672-2.599,12.945-7.315,17.663C433.357,442.794,427.084,445.391,420.412,445.391z"/>
</g>
<g>
</g>
<g>
</g>
<g>
</g>
<g>
</g>
<g>
</g>
<g>
</g>
<g>
</g>
<g>
</g>
<g>
</g>
<g>
</g>
<g>
</g>
<g>
</g>
<g>
</g>
<g>
</g>
<g>
</g>
</svg>
